<svg xmlns="http://www.w3.org/2000/svg" width="22" height="22" fill="none" viewBox="0 0 22 22">
  <path fill="#fff" d="M18.563 4.125h-3.438v-.688a2.071 2.071 0 0 0-2.063-2.062H8.939a2.071 2.071 0 0 0-2.063 2.063v.687H3.437a.688.688 0 1 0 0 1.375h.688v12.375A1.375 1.375 0 0 0 5.5 19.25h11a1.375 1.375 0 0 0 1.375-1.375V5.5h.688a.687.687 0 0 0 0-1.375ZM9.624 14.438a.687.687 0 0 1-1.375 0v-5.5a.688.688 0 1 1 1.375 0v5.5Zm4.125 0a.687.687 0 1 1-1.375 0v-5.5a.687.687 0 1 1 1.375 0v5.5Zm0-10.313h-5.5v-.688a.688.688 0 0 1 .688-.687h4.124a.687.687 0 0 1 .688.688v.687Z"/>
</svg>
