<svg xmlns="http://www.w3.org/2000/svg" width="48" height="48" fill="none" viewBox="0 0 48 48">
  <g clip-path="url(#a)">
    <path fill="#fff" stroke="#fff" stroke-width=".391" d="M47.255 20.15h-1.173c-1.215-4.486-5.598-5.071-9.02-5.071-1.953 0-4.383 0-6.403.675-1.627.545-2.742 1.45-3.337 2.7-1.308-.66-2.31-.94-3.322-.94s-2.014.28-3.322.94c-.595-1.25-1.71-2.155-3.337-2.7-2.02-.675-4.45-.675-6.402-.675-3.423 0-7.806.585-9.02 5.071H.744a.745.745 0 1 0 0 1.49h.905c-.037.375-.057.772-.057 1.192 0 3.254.287 4.585 1.1 5.826l-1.174.957c-.392.32-.565.824-.45 1.317.116.492.494.868.987.98l1.303.298a2.527 2.527 0 0 0 2.189-.527c1.224.822 2.78 1.238 5.391 1.238 2.478 0 4.957-1.024 6.803-2.811.355-.343.725-.754 1.085-1.239l.101.042a1.975 1.975 0 0 0 2.582-1.078l.956-2.326c.201-.49.2-1.027-.004-1.515a1.965 1.965 0 0 0-1.073-1.067l-.303-.125c.065-.59.102-1.217.102-1.881a6.76 6.76 0 0 0-.075-1.016c1.206-.636 2.066-.902 2.887-.902.821 0 1.682.266 2.887.902a6.76 6.76 0 0 0-.074 1.015c0 .665.036 1.291.101 1.882l-.303.125c-.488.2-.87.58-1.073 1.067a1.965 1.965 0 0 0-.004 1.515l.956 2.326c.201.49.58.87 1.068 1.074a1.976 1.976 0 0 0 1.514.004l.101-.041c.36.484.73.895 1.085 1.238 1.846 1.787 4.325 2.811 6.803 2.811 2.61 0 4.167-.416 5.391-1.238a2.526 2.526 0 0 0 2.19.527l1.302-.297c.493-.113.871-.489.986-.981a1.304 1.304 0 0 0-.449-1.317l-1.174-.957c.813-1.241 1.1-2.572 1.1-5.826 0-.42-.02-.817-.057-1.193h.905a.745.745 0 0 0 0-1.489ZM3.69 30.758l-.95-.217.865-.705.241.28c.174.2.346.388.521.567a1.04 1.04 0 0 1-.677.075Zm13.016-1.718c-1.57 1.52-3.672 2.392-5.767 2.392-3.425 0-4.565-.676-5.969-2.292-1.488-1.714-1.888-2.174-1.888-6.308 0-4.45 2.276-6.264 7.857-6.264 4.616 0 8.76.333 8.76 4.352 0 3.417-1.035 6.225-2.993 8.12Zm4.383-4.098-.956 2.327a.486.486 0 0 1-.477.301c.487-.9.908-1.977 1.186-3.256a.49.49 0 0 1 .247.628Zm7.043 2.593a.487.487 0 0 1-.264-.266l-.957-2.327a.489.489 0 0 1 .248-.628 12.23 12.23 0 0 0 1.185 3.256.488.488 0 0 1-.212-.035Zm8.93 3.897c-2.096 0-4.198-.872-5.768-2.392-1.958-1.895-2.992-4.703-2.992-8.12 0-4.02 4.143-4.352 8.76-4.352 5.58 0 7.856 1.814 7.856 6.264 0 4.133-.4 4.594-1.888 6.308-1.404 1.616-2.544 2.292-5.969 2.292Zm7.248-.674a1.042 1.042 0 0 1-.677-.075c.175-.179.348-.367.521-.567l.241-.28.865.705-.95.217Z"/>
  </g>
  <defs>
    <clipPath id="a">
      <path fill="#fff" d="M0 0h48v48H0z"/>
    </clipPath>
  </defs>
</svg>
