<svg xmlns="http://www.w3.org/2000/svg" width="48" height="48" fill="none" viewBox="0 0 48 48">
  <path fill="#fff" d="M39.29 17.56h-1.77a5.287 5.287 0 0 0-3.657-2.016l-.075-.01a18.46 18.46 0 0 1-1.068-.13l-6.76-1.145a12.004 12.004 0 0 0-3.928 0l-6.76 1.144a17.5 17.5 0 0 1-1.068.131l-.075.01c-1.5.16-2.794.91-3.647 2.015H8.71a4.71 4.71 0 0 0-4.706 4.707v3.909a4.71 4.71 0 0 0 4.706 4.706h1.163a5.313 5.313 0 0 0 4.8 3.028h18.656a5.31 5.31 0 0 0 4.79-3.028h1.173a4.71 4.71 0 0 0 4.706-4.706v-3.91a4.71 4.71 0 0 0-4.706-4.706ZM8.71 29.474a3.305 3.305 0 0 1-3.3-3.3v-3.91c0-1.818 1.48-3.3 3.3-3.3h.984a5.354 5.354 0 0 0-.338 1.866v7.763c0 .3.028.59.075.881H8.71Zm28.527-.872a3.913 3.913 0 0 1-3.909 3.91H14.672a3.913 3.913 0 0 1-3.91-3.91V20.85a3.898 3.898 0 0 1 3.507-3.89l.075-.01c.375-.037.769-.075 1.162-.14l6.76-1.144a9.854 9.854 0 0 1 1.734-.15c.581 0 1.153.046 1.734.14l6.76 1.144c.394.066.787.103 1.162.14l.075.01a3.898 3.898 0 0 1 3.506 3.89v7.763Zm5.354-2.428c0 1.819-1.482 3.3-3.3 3.3h-.732c.047-.281.075-.572.075-.872V20.83c0-.656-.121-1.284-.337-1.865h.994c1.818 0 3.3 1.48 3.3 3.3v3.909Z"/>
  <path fill="#fff" d="M33.281 25.425H14.72a.708.708 0 0 1-.703-.703c0-.385.318-.703.703-.703h18.56c.385 0 .703.319.703.703a.708.708 0 0 1-.703.703Zm0 3.469H19.36a.708.708 0 0 1-.703-.703c0-.385.319-.703.703-.703h13.922c.385 0 .703.318.703.703a.708.708 0 0 1-.703.703Zm-16.125 0H14.72a.708.708 0 0 1-.703-.703c0-.385.318-.703.703-.703h2.437c.385 0 .703.318.703.703a.708.708 0 0 1-.703.703Zm11.484-6.947H14.72a.708.708 0 0 1-.703-.703c0-.385.318-.703.703-.703h13.92c.384 0 .703.318.703.703a.708.708 0 0 1-.703.703Zm4.641 0h-2.437a.708.708 0 0 1-.703-.703c0-.385.318-.703.703-.703h2.437c.385 0 .703.318.703.703a.708.708 0 0 1-.703.703Z"/>
</svg>
