<svg xmlns="http://www.w3.org/2000/svg" width="38" height="39" fill="none" viewBox="0 0 38 39">
  <path fill="#fff" fill-rule="evenodd" d="M11.281 4.782s2.706 0 4.618 1.913c0 0 1.914 1.913 1.914 4.619 0 0 0 2.705-1.913 4.618 0 0-1.913 1.913-4.619 1.913 0 0-2.705 0-4.618-1.913 0 0-1.913-1.913-1.913-4.618 0 0 0-2.706 1.913-4.619 0 0 1.913-1.913 4.618-1.913Zm0 2.375s-1.721 0-2.939 1.218c0 0-1.217 1.217-1.217 2.939 0 0 0 1.721 1.217 2.939 0 0 1.218 1.217 2.94 1.217 0 0 1.72 0 2.938-1.217 0 0 1.217-1.218 1.217-2.94 0 0 0-1.72-1.217-2.938 0 0-1.217-1.218-2.939-1.218Zm15.438-2.375s2.705 0 4.618 1.913c0 0 1.913 1.913 1.913 4.619 0 0 0 2.705-1.913 4.618 0 0-1.913 1.913-4.618 1.913 0 0-2.706 0-4.619-1.913 0 0-1.913-1.913-1.913-4.618 0 0 0-2.706 1.913-4.619 0 0 1.913-1.913 4.619-1.913Zm0 2.375s-1.722 0-2.94 1.218c0 0-1.216 1.217-1.216 2.939 0 0 0 1.721 1.217 2.939 0 0 1.217 1.217 2.939 1.217 0 0 1.721 0 2.939-1.217 0 0 1.217-1.218 1.217-2.94 0 0 0-1.72-1.217-2.938 0 0-1.218-1.218-2.94-1.218ZM11.281 20.22s2.706 0 4.618 1.913c0 0 1.914 1.913 1.914 4.618 0 0 0 2.706-1.913 4.618 0 0-1.913 1.913-4.619 1.913 0 0-2.705 0-4.618-1.912 0 0-1.913-1.914-1.913-4.619 0 0 0-2.705 1.913-4.618 0 0 1.913-1.913 4.618-1.913Zm0 2.375s-1.721 0-2.939 1.217c0 0-1.217 1.218-1.217 2.94 0 0 0 1.72 1.217 2.938 0 0 1.218 1.217 2.94 1.217 0 0 1.72 0 2.938-1.217 0 0 1.217-1.217 1.217-2.939 0 0 0-1.721-1.217-2.939 0 0-1.217-1.217-2.939-1.217Z" clip-rule="evenodd"/>
  <path fill="#fff" d="M25.531 22.595v8.313a1.188 1.188 0 0 0 2.375 0v-8.313a1.187 1.187 0 1 0-2.375 0Z"/>
  <path fill="#fff" d="M30.875 25.564h-8.313a1.188 1.188 0 0 0 0 2.375h8.313a1.187 1.187 0 1 0 0-2.375Z"/>
</svg>
