<svg xmlns="http://www.w3.org/2000/svg" width="27" height="27" fill="none" viewBox="0 0 27 27">
  <path fill="#fff" fill-rule="evenodd" d="M5.549 11.853v-.79s-.002-1.577.602-3.034c0 0 .604-1.458 1.722-2.57 0 0 1.118-1.114 2.578-1.712 0 0 1.46-.598 3.037-.59 0 0 1.604.012 3.065.653 0 0 1.405.617 2.488 1.728 0 0 1.077 1.107 1.668 2.535 0 0 .611 1.475.611 3.079v.701s0 4.1 1.287 6.324c0 0 .212.367.212.79 0 0 0 .423-.21.79 0 0-.211.366-.577.578 0 0-.365.213-.788.214H5.628s-.426-.001-.792-.214c0 0-.365-.212-.576-.579 0 0-.21-.366-.21-.79 0 0 0-.422.211-.789 0 0 1.288-2.223 1.288-6.324Zm1.58 0s0 4.525-1.498 7.115h15.607s-1.5-2.59-1.5-7.115v-.701s0-2.63-1.83-4.51c0 0-1.834-1.884-4.429-1.904 0 0-1.261-.007-2.429.472 0 0-1.167.478-2.061 1.368 0 0-.894.89-1.378 2.056 0 0-.483 1.166-.481 2.429v.79Z" clip-rule="evenodd"/>
  <path fill="#fff" d="M17.387 20.55v-.791a.79.79 0 0 0-1.581 0v.79c0 .983-.695 1.677-.695 1.677-.694.695-1.677.695-1.677.695-.982 0-1.677-.695-1.677-.695-.694-.694-.694-1.677-.694-1.677v-.79a.79.79 0 0 0-1.581 0v.79c0 1.637 1.157 2.795 1.157 2.795 1.158 1.158 2.795 1.158 2.795 1.158 1.638 0 2.795-1.158 2.795-1.158 1.158-1.158 1.158-2.795 1.158-2.795Z"/>
</svg>
