<svg xmlns="http://www.w3.org/2000/svg" width="46" height="42" fill="none" viewBox="0 0 46 42">
  <path fill="#fff" d="M33.19 41.434H12.628c-1.71 0-1.71-1.566-1.71-2.319l.535-23.89-3.635 3.108a1.303 1.303 0 0 1-.825.322 1.31 1.31 0 0 1-.843-.274 5.48 5.48 0 0 1-.934-.76l-4.088-3.36c-.547-.519-1.719-1.636-.764-2.547l5.38-5.125c.358-.415 3.674-4.082 8.89-4.082h3.164v1.381h-3.164c-4.72 0-7.757 3.559-7.785 3.593a.696.696 0 0 1-.054.058L1.502 12.58c.178.239.38.46.604.661l4.089 3.362c.227.23.477.438.747.621l4.785-4.096a.758.758 0 0 1 .787-.114.716.716 0 0 1 .312.262.667.667 0 0 1 .11.381l-.57 25.47a2.51 2.51 0 0 0 .103.908.548.548 0 0 0 .157.014h20.563a.455.455 0 0 0 .164-.02c.085-.299.117-.608.095-.917l-.57-25.455a.667.667 0 0 1 .11-.381.715.715 0 0 1 .313-.262.759.759 0 0 1 .787.114l4.84 4.14 5.427-4.648-5.332-5.08a.82.82 0 0 1-.054-.057c-.03-.037-3.086-3.595-7.786-3.595h-3.218V2.506h3.218c5.22 0 8.532 3.667 8.891 4.082l5.38 5.125c.725.691.725 1.13.006 1.816l-5.605 4.802a1.28 1.28 0 0 1-.409.342c-.16.085-.337.137-.52.152a1.386 1.386 0 0 1-.532-.16 1.32 1.32 0 0 1-.417-.354l-3.613-3.09.534 23.877c.002.77.002 2.335-1.707 2.335Z"/>
  <path fill="#fff" d="M21.737 6.832h-.725v33.911h.725V6.832Zm2.961 0h-.726v33.911h.726V6.832ZM23.315 8.94a.425.425 0 0 1-.078.244.457.457 0 0 1-.207.162.482.482 0 0 1-.501-.096.42.42 0 0 1-.1-.478.443.443 0 0 1 .17-.196.477.477 0 0 1 .581.054.438.438 0 0 1 .135.31Z"/>
  <path fill="#fff" d="M23.315 8.94a.425.425 0 0 1-.078.244.457.457 0 0 1-.207.162.482.482 0 0 1-.501-.096.42.42 0 0 1-.1-.478.443.443 0 0 1 .17-.196.477.477 0 0 1 .581.054.438.438 0 0 1 .135.31Zm0 6.91a.425.425 0 0 1-.078.243.457.457 0 0 1-.207.16.48.48 0 0 1-.501-.094.42.42 0 0 1-.1-.478.444.444 0 0 1 .17-.197.477.477 0 0 1 .581.054.438.438 0 0 1 .135.311Zm0 6.908a.425.425 0 0 1-.078.243.456.456 0 0 1-.207.161.482.482 0 0 1-.501-.095.42.42 0 0 1-.1-.478.443.443 0 0 1 .17-.196.476.476 0 0 1 .581.054.438.438 0 0 1 .135.31Zm0 6.908a.425.425 0 0 1-.078.244.457.457 0 0 1-.207.16.482.482 0 0 1-.501-.094.42.42 0 0 1-.1-.478.443.443 0 0 1 .17-.197.477.477 0 0 1 .581.054.437.437 0 0 1 .135.311Zm0 6.909a.425.425 0 0 1-.078.243.457.457 0 0 1-.207.161.481.481 0 0 1-.501-.095.42.42 0 0 1-.1-.478.444.444 0 0 1 .17-.197.477.477 0 0 1 .581.055.437.437 0 0 1 .135.31Zm-.308-33.922c-1.793 0-3.16-.118-3.18-.12l.067-.69c1.984.151 3.977.151 5.96 0l.068.687a31.953 31.953 0 0 1-2.915.123Zm-.059-1.243c-2.12 0-3.653-.147-3.676-.15l.073-.69a42.87 42.87 0 0 0 7.058 0l.068.69c-1.242.113-2.457.15-3.523.15Z"/>
  <path fill="#fff" d="M20.415 7.933a.378.378 0 0 1-.157-.034c-.08-.036-1.976-.943-2.94-5.325a.33.33 0 0 1 .095-.311L19.027.677a.38.38 0 0 1 .523.003.34.34 0 0 1 .091.162c.008.032.801 3.273 3.404 4.938.05.032.09.074.118.125a.333.333 0 0 1-.118.45l-2.428 1.52a.38.38 0 0 1-.202.058Zm-2.347-5.322c.725 3.124 1.917 4.248 2.347 4.563l1.79-1.122a9.513 9.513 0 0 1-3.095-4.464L18.068 2.61Z"/>
  <path fill="#fff" d="M25.286 7.933c-.07 0-.14-.02-.198-.057l-2.428-1.52a.351.351 0 0 1-.118-.124.332.332 0 0 1 0-.326.351.351 0 0 1 .118-.124C25.262 4.117 26.056.877 26.064.844a.34.34 0 0 1 .09-.162.38.38 0 0 1 .523-.003l1.615 1.586a.33.33 0 0 1 .094.31c-.964 4.383-2.86 5.29-2.94 5.326a.378.378 0 0 1-.16.032Zm-1.79-1.88 1.79 1.12c.43-.314 1.625-1.438 2.347-4.562l-1.042-1.023a9.506 9.506 0 0 1-3.095 4.464Z"/>
</svg>
