<svg xmlns="http://www.w3.org/2000/svg" width="42" height="38" fill="none" viewBox="0 0 42 38">
  <path stroke="#fff" stroke-width="1.5" d="m40.819 16.84-7.62-13.197A5.371 5.371 0 0 0 28.563.964h-2.377c-.43 0-.835.205-1.09.552L22.33 5.283c-.66.898-2 .898-2.66 0l-2.765-3.766a1.353 1.353 0 0 0-1.09-.552h-2.377A5.372 5.372 0 0 0 8.8 3.643L1.181 16.84a1.353 1.353 0 0 0 .495 1.847l6.544 3.777a1.35 1.35 0 0 0 1.555-.143v13.36c0 .748.605 1.353 1.352 1.353h19.746c.747 0 1.352-.605 1.352-1.352v-13.36a1.354 1.354 0 0 0 1.556.142l6.543-3.777a1.353 1.353 0 0 0 .495-1.847Z"/>
</svg>
